<?xml version="1.0" encoding="iso-8859-1"?>
<!-- Generator: Adobe Illustrator 16.0.0, SVG Export Plug-In . SVG Version: 6.00 Build 0)  -->
<!DOCTYPE svg PUBLIC "-//W3C//DTD SVG 1.1//EN" "http://www.w3.org/Graphics/SVG/1.1/DTD/svg11.dtd">
<svg xmlns="http://www.w3.org/2000/svg" xmlns:xlink="http://www.w3.org/1999/xlink" version="1.1" id="Capa_1" x="0px" y="0px" width="512px" height="512px" viewBox="0 0 567.813 567.813" style="enable-background:new 0 0 567.813 567.813;" xml:space="preserve">
<g>
	<g>
		<path d="M369.782,267.456l-0.225,1.483l-3.835,21.716v0.061l-0.425,2.403c-1.327,6.497-7.442,24.574-35.114,24.574H191.509    c-23.911,0-28.622-18.988-29.528-24.913l-0.239-1.839l-0.008-0.052l-2.746-20.307c0-0.026,0-0.026,0-0.035l-0.464-2.993    c0-0.03,0-0.056,0-0.083c-2.593-18.901,9.33-22.207,15.527-22.684h175.441C354.759,244.885,373.408,246.646,369.782,267.456    L369.782,267.456z M477.928,338.703c0,0,0.624-20.463-21.695-20.463h-46.287c-21.825,0-20.818-18.061-20.159-22.918    l41.446-263.748v-0.008C436.229-0.356,405.191,0,405.191,0h-19.014h-16.95H150.184h-7.851H122.5    c-25.572,0-26.01,19.231-25.191,26.791l0.451,2.967l0.009,0.026l40.701,263.396c0.009,0.026,0.009,0.026,0.009,0.052    c3.5,22.692-12.543,24.896-17.987,25.009H75.579c-25.624,0-25.004,19.015-25.004,19.015s-0.824,20.658,28.726,20.658h376.315    C478.353,357.913,477.928,338.703,477.928,338.703L477.928,338.703z" fill="#ed3b3e"/>
		<path d="M504.202,507.509c-7.217,0-13.046,5.847-13.046,13.046v10.201c0,0.243-0.062,0.382-0.078,0.59    c0.043,0.33,0.182,0.59,0.182,0.938c0,5.17-4.189,9.351-9.342,9.351c-5.188,0-9.378-4.181-9.378-9.351    c0-0.07,0.018-0.122,0.018-0.174h-0.069v-13.428v-4.025v-18.112v-7.183c0-16.43-3.296-26.562-5.864-31.991    c-0.364-0.729-0.763-1.44-1.127-2.151c-0.399-0.729-0.902-1.405-1.345-2.064c-1.405-2.047-2.967-3.99-4.676-5.777    c-0.659-0.624-1.354-1.214-2.056-1.821c-0.46-0.399-0.945-0.781-1.423-1.18c-13.211-10.114-31.636-11.242-37.387-11.347H398.92    h-6.515c-7.538-27.763-32.659-48.286-62.803-48.286c-36.077,0-65.345,29.255-65.345,65.341c0,36.085,29.268,65.336,65.345,65.336    c32.478,0,59.212-23.751,64.277-54.788h21.895v0.052c6.038,0.104,11.72,1.423,16.993,3.557    c4.025,1.943,15.449,9.091,15.449,29.337v28.175c0,9.854,0.781,15.874,1.57,19.5c4.468,15.319,18.468,26.562,35.228,26.562    c8.64,0,16.377-3.227,22.605-8.258c3.729-3.661,9.88-12.37,9.611-30.326v-8.709C517.231,513.355,511.385,507.509,504.202,507.509    L504.202,507.509z" fill="#ed3b3e"/>
	</g>
</g>
<g>
</g>
<g>
</g>
<g>
</g>
<g>
</g>
<g>
</g>
<g>
</g>
<g>
</g>
<g>
</g>
<g>
</g>
<g>
</g>
<g>
</g>
<g>
</g>
<g>
</g>
<g>
</g>
<g>
</g>
</svg>
