<?xml version="1.0" encoding="iso-8859-1"?>
<!-- Generator: Adobe Illustrator 16.0.0, SVG Export Plug-In . SVG Version: 6.00 Build 0)  -->
<!DOCTYPE svg PUBLIC "-//W3C//DTD SVG 1.1//EN" "http://www.w3.org/Graphics/SVG/1.1/DTD/svg11.dtd">
<svg xmlns="http://www.w3.org/2000/svg" xmlns:xlink="http://www.w3.org/1999/xlink" version="1.1" id="Capa_1" x="0px" y="0px" width="512px" height="512px" viewBox="0 0 536.028 536.027" style="enable-background:new 0 0 536.028 536.027;" xml:space="preserve">
<g>
	<g>
		<path d="M453.138,132.645C392.245-11.73,271.365,0.242,271.365,0.242h-6.703c0,0-120.879-11.972-181.773,132.402    c-51.37,121.759,28.286,308.133,54.468,363.48c4.217,8.922,15.243,19.145,24.576,22.348c21.544,7.391,61.19,18.504,102.74,17.49    h6.703c41.539,1.004,81.186-10.1,102.721-17.49c9.333-3.203,20.358-13.426,24.565-22.348    C424.862,440.768,504.508,254.404,453.138,132.645z M428.381,292.605c-11.609,25.705-43.538,32.924-59.192,34.941    c-4.896,0.631-6.971,4.295-5.374,8.971c1.903,5.623,3.758,13.74,3.175,23.064c-0.564,8.873-2.764,16.094-4.839,21.104    c-1.893,4.562-0.851,10.328,2.19,14.221c5.747,7.344,12.861,21.42,9.352,43.92c-5.594,35.717-32.359,54.697-102.127,54.697h-7.095    c-69.777,0-96.552-18.973-102.137-54.697c-3.51-22.5,3.595-36.576,9.342-43.92c3.041-3.893,4.083-9.668,2.19-14.221    c-2.075-5.01-4.284-12.23-4.839-21.104c-0.593-9.334,1.272-17.441,3.166-23.064c1.587-4.668-0.479-8.33-5.375-8.971    c-15.663-2.018-47.583-9.246-59.182-34.941c-11.867-26.277-2.496-64.154,2.706-80.841c1.473-4.705,2.85-12.46,3.031-17.385    c1.578-43.471,14.554-63.285,22.921-71.614c3.5-3.471,6.053-1.501,5.565,3.414c-1.3,13.062-0.163,38.116,22.711,57.06    c21.592,17.863,40.698,15.864,51.035,12.556c4.695-1.501,7.898,0.382,8.606,5.259c4.667,32.245,40.258,31.289,40.258,31.289h7.095    c0,0,35.582,0.956,40.248-31.289c0.698-4.877,3.911-6.761,8.606-5.259c10.337,3.309,29.443,5.307,51.045-12.556    c22.873-18.943,24.012-43.997,22.711-57.06c-0.497-4.915,2.084-6.885,5.565-3.404c8.357,8.329,21.334,28.152,22.911,71.614    c0.173,4.924,1.568,12.67,3.022,17.375C430.868,228.451,440.249,266.328,428.381,292.605z" fill="#ed3b3e"/>
		<path d="M232.618,270.535c2.037-2.916,3.882-6.301,5.125-10.145c3.031-9.381-6.235-21.563-15.587-24.719    c-10.021-3.375-24.92-7.134-45.451-9.362c-9.811-1.052-26.316-0.258-33.688,6.283c-4.906,4.351-9.113,11.064-9.419,21.315    c-0.65,22.367,25.426,30.189,68.486,29.654C211.935,283.445,226.967,278.615,232.618,270.535z" fill="#ed3b3e"/>
		<path d="M355.945,226.319c-20.53,2.218-35.429,5.986-45.45,9.361c-9.353,3.156-18.618,15.338-15.587,24.719    c1.233,3.834,3.079,7.229,5.116,10.146c5.651,8.09,20.684,12.92,30.533,13.033c43.06,0.547,69.146-7.285,68.486-29.652    c-0.297-10.251-4.514-16.964-9.409-21.315C382.261,226.051,365.747,225.257,355.945,226.319z" fill="#ed3b3e"/>
		<path d="M211.495,342.254c-4.198,8.932-4.293,25.064,4.446,29.654c8.635,4.551,24.041,8.539,51.485,8.539    c27.875,0,43.566-4.111,52.412-8.74c8.73-4.58,8.988-20.521,4.839-29.463c-12.03-25.855-28.535-41.281-40.488-49.771    c-8.052-5.719-22.93-5.795-31.058-0.211C240.833,300.695,223.754,316.168,211.495,342.254z" fill="#ed3b3e"/>
		<path d="M314.148,417.627H221.87c-9.859,0-17.854,5.336-17.854,11.914s7.994,11.904,17.854,11.904h92.268    c9.858,0,17.853-5.334,17.853-11.904C332,422.953,324.006,417.627,314.148,417.627z" fill="#ed3b3e"/>
	</g>
</g>
<g>
</g>
<g>
</g>
<g>
</g>
<g>
</g>
<g>
</g>
<g>
</g>
<g>
</g>
<g>
</g>
<g>
</g>
<g>
</g>
<g>
</g>
<g>
</g>
<g>
</g>
<g>
</g>
<g>
</g>
</svg>
